<svg width="20" height="20" viewBox="0 0 20 20" fill="none" xmlns="http://www.w3.org/2000/svg">
<path d="M8.2002 0C12.7289 6.56167e-05 16.4004 3.67146 16.4004 8.2002C16.4004 10.2375 15.6546 12.0991 14.4248 13.5332L20 19.1084L19.1084 20L13.5332 14.4258C12.0992 15.6553 10.2373 16.4004 8.2002 16.4004C3.67146 16.4004 6.56186e-05 12.7289 0 8.2002C0 3.67142 3.67142 0 8.2002 0ZM8.2002 1.26172C4.36815 1.26172 1.26172 4.36815 1.26172 8.2002C1.26178 12.0322 4.36819 15.1387 8.2002 15.1387C12.0321 15.1386 15.1386 12.0321 15.1387 8.2002C15.1387 4.36819 12.0322 1.26178 8.2002 1.26172Z" fill="#222222"/>
</svg>
