<svg width="20" height="20" viewBox="0 0 20 20" fill="none" xmlns="http://www.w3.org/2000/svg">
<path d="M7.66602 1.56445C3.96622 2.58574 1.25005 5.9766 1.25 10C1.25006 14.8324 5.16754 18.75 10 18.75C14.0542 18.75 17.4654 15.992 18.458 12.249L19.667 12.5693C18.5328 16.8466 14.6352 20 10 20C4.47719 20 5.73385e-05 15.5228 0 10C5.15075e-05 5.3998 3.10607 1.5263 7.33398 0.359375L7.66602 1.56445ZM20 7.8125H18.75V2.13379L7.31738 13.5674L6.43359 12.6836L17.8662 1.25H12.1875V0H20V7.8125Z" fill="#222222"/>
</svg>
