<svg width="16" height="14" viewBox="0 0 16 14" fill="none" xmlns="http://www.w3.org/2000/svg">
<path d="M15 6.99793C15 3.7524 11.9384 0.999704 8 0.999704C4.06161 0.999704 1 3.7524 1 6.99793C1 8.03846 1.30941 9.01914 1.85864 9.87671C1.86333 9.88403 1.86481 9.88636 1.875 9.90209L2.11304 10.2697L1.48657 12.7138L4.38892 12.1441L4.68335 12.2803C5.66866 12.736 6.79749 12.9961 8 12.9961V13.9959C6.65303 13.9959 5.38088 13.7043 4.26343 13.1875L0.125 14L1.03564 10.4456C1.02921 10.4357 1.02273 10.4258 1.01636 10.4159C0.370927 9.40809 0 8.24188 0 6.99793C0 3.06832 3.65129 0 8 0C12.3487 0 16 3.06832 16 6.99793C16 10.9275 12.3487 13.9959 8 13.9959V12.9961C11.9384 12.9961 15 10.2435 15 6.99793Z" fill="white"/>
</svg>
