<?xml version="1.0" encoding="UTF-8"?>
<svg width="1024px" height="1024px" viewBox="0 0 1024 1024" version="1.1" xmlns="http://www.w3.org/2000/svg" xmlns:xlink="http://www.w3.org/1999/xlink">
    <!-- Generator: Sketch 64 (93537) - https://sketch.com -->
    <title>画板</title>
    <desc>Created with Sketch.</desc>
    <defs>
        <linearGradient x1="50%" y1="0%" x2="50%" y2="100%" id="linearGradient-1">
            <stop stop-color="#EEEEEE" stop-opacity="0.3" offset="0%"></stop>
            <stop stop-color="#E5E5E5" stop-opacity="0" offset="100%"></stop>
        </linearGradient>
        <linearGradient x1="50%" y1="0%" x2="50%" y2="100%" id="linearGradient-2">
            <stop stop-color="#EEEEEE" offset="0%"></stop>
            <stop stop-color="#E5E5E5" stop-opacity="0" offset="100%"></stop>
        </linearGradient>
        <linearGradient x1="50%" y1="0%" x2="50%" y2="100%" id="linearGradient-3">
            <stop stop-color="#EEEEEE" offset="0%"></stop>
            <stop stop-color="#E5E5E5" stop-opacity="0" offset="100%"></stop>
        </linearGradient>
        <linearGradient x1="50%" y1="0%" x2="50%" y2="100%" id="linearGradient-4">
            <stop stop-color="#EEEEEE" offset="0%"></stop>
            <stop stop-color="#E5E5E5" stop-opacity="0" offset="100%"></stop>
        </linearGradient>
        <linearGradient x1="50%" y1="0%" x2="50%" y2="100%" id="linearGradient-5">
            <stop stop-color="#EEEEEE" offset="0%"></stop>
            <stop stop-color="#E5E5E5" stop-opacity="0" offset="100%"></stop>
        </linearGradient>
    </defs>
    <g id="画板" stroke="none" stroke-width="1" fill="none" fill-rule="evenodd">
        <g id="编组-6" transform="translate(11.000000, 8.000000)">
            <g id="编组-3">
                <path d="M517.859663,75.5930624 L517.98985,75.5929095 C659.452561,75.4268093 774.265398,189.970344 774.431498,331.433056 C774.431733,331.633692 774.431733,331.834329 774.431497,332.034966 L774.087639,624.492303 C773.920892,766.313371 658.993663,881.240417 517.172595,881.406938 L517.042408,881.40709 C375.579697,881.573191 260.76686,767.029656 260.60076,625.566944 C260.600525,625.366308 260.600525,625.165671 260.600761,624.965034 L260.944619,332.507697 C261.111366,190.686629 376.038595,75.7595833 517.859663,75.5930624 Z" id="矩形" fill="url(#linearGradient-1)" transform="translate(517.516129, 478.500000) rotate(-330.000000) translate(-517.516129, -478.500000) "></path>
                <path d="M242.31191,247.863468 C248.374598,247.856349 253.295148,252.765358 253.302266,258.828045 C253.302277,258.836644 253.302277,258.845243 253.302266,258.853841 L253.198944,346.731006 C253.191794,352.812136 248.263843,357.740079 242.182714,357.747219 C236.120026,357.754338 231.199476,352.845329 231.192357,346.782642 C231.192347,346.774043 231.192347,346.765444 231.192357,346.756846 L231.295679,258.879681 C231.302829,252.798551 236.230781,247.870608 242.31191,247.863468 Z" id="矩形备份-6" fill="url(#linearGradient-2)" transform="translate(242.247312, 302.805344) rotate(-330.000000) translate(-242.247312, -302.805344) "></path>
                <path d="M102.863909,317.396837 C110.947492,317.387346 117.508226,323.932691 117.517717,332.016274 C117.517731,332.027739 117.517731,332.039204 117.517717,332.050669 L117.379954,449.220222 C117.370421,457.328395 110.799819,463.898986 102.691647,463.908506 C94.6080633,463.917998 88.0473297,457.372653 88.0378383,449.289069 C88.0378248,449.277605 88.0378248,449.26614 88.0378383,449.254675 L88.1756012,332.085121 C88.1851344,323.976949 94.7557363,317.406357 102.863909,317.396837 Z" id="矩形备份-2" fill="url(#linearGradient-3)" transform="translate(102.777778, 390.652672) rotate(-330.000000) translate(-102.777778, -390.652672) "></path>
                <path d="M873.659662,515.028462 C881.743246,515.01897 888.303979,521.564315 888.313471,529.647899 C888.313484,529.659364 888.313484,529.670829 888.313471,529.682294 L888.089577,720.107681 C888.080044,728.215854 881.509442,734.786445 873.401269,734.795966 C865.317686,734.805457 858.756952,728.260112 858.747461,720.176529 C858.747448,720.165064 858.747448,720.153599 858.747461,720.142134 L858.971355,529.716746 C858.980888,521.608574 865.55149,515.037982 873.659662,515.028462 Z" id="矩形备份-5" fill="url(#linearGradient-4)" transform="translate(873.530466, 624.912214) rotate(-330.000000) translate(-873.530466, -624.912214) "></path>
                <polygon id="星形" fill="url(#linearGradient-5)" transform="translate(77.086022, 617.591603) rotate(-315.000000) translate(-77.086022, -617.591603) " points="77.0661304 632.252716 51.1334285 643.544196 62.424909 617.611494 51.2037542 591.709336 77.1059126 602.930491 103.038614 591.63901 91.747134 617.571712 102.968289 643.47387"></polygon>
                <polygon id="星形备份-2" fill="url(#linearGradient-5)" transform="translate(940.116655, 252.081328) rotate(-315.000000) translate(-940.116655, -252.081328) " points="940.096764 266.742441 914.164063 278.033921 925.455543 252.10122 914.234388 226.199061 940.136547 237.420216 966.069248 226.128736 954.777768 252.061437 965.998923 277.963596"></polygon>
                <polygon id="星形备份" fill="url(#linearGradient-5)" transform="translate(22.032258, 731.061069) rotate(-315.000000) translate(-22.032258, -731.061069) " points="22.0203234 739.857736 6.46070228 746.632624 13.2355906 731.073003 6.50289769 715.531708 22.0441927 722.264401 37.6038138 715.489513 30.8289256 731.049134 37.5616184 746.590429"></polygon>
                <polygon id="星形备份-3" fill="url(#linearGradient-5)" transform="translate(980.489415, 372.871405) rotate(-315.000000) translate(-980.489415, -372.871405) " points="980.477481 381.668072 964.91786 388.442961 971.692748 372.883339 964.960055 357.342044 980.50135 364.074737 996.060971 357.299849 989.286083 372.85947 996.018776 388.400765"></polygon>
            </g>
            <g id="编组-5" transform="translate(318.000000, 259.000000)">
                <rect id="矩形" fill="#FFFFFF" x="0" y="0" width="366" height="439" rx="45"></rect>
                <path d="M329.4,0 C349.613622,0 366,16.3789162 366,36.5833333 L366,402.416667 C366,422.621084 349.613622,439 329.4,439 L36.6,439 C16.3863782,439 0,422.621084 0,402.416667 L0,36.5833333 C0,16.3789162 16.3863782,0 36.6,0 L329.4,0 Z M329.4,7.31666667 L36.6,7.31666667 C20.7342138,7.31666667 7.81577311,19.9300065 7.33393298,35.6717523 L7.32,36.5833333 L7.32,402.416667 C7.32,418.275228 19.9390862,431.187786 35.6880037,431.669407 L36.6,431.683333 L329.4,431.683333 C345.265786,431.683333 358.184227,419.069993 358.666067,403.328248 L358.68,402.416667 L358.68,36.5833333 C358.68,20.724772 346.060914,7.81221401 330.311996,7.3305933 L329.4,7.31666667 Z" id="矩形备份-11" fill="#C9C9C9" fill-rule="nonzero"></path>
                <rect id="矩形" fill="#C9C9C9" x="54.9" y="318.275" width="256.2" height="10.975" rx="3"></rect>
                <rect id="矩形备份-10" fill="#C9C9C9" x="54.9" y="373.15" width="109.8" height="10.975" rx="3"></rect>
                <rect id="矩形备份-8" fill="#C9C9C9" x="54.9" y="263.4" width="256.2" height="10.975" rx="3"></rect>
                <rect id="矩形备份-9" fill="#C9C9C9" x="54.9" y="208.525" width="256.2" height="10.975" rx="3"></rect>
                <path d="M69.8328,135.358333 L69.8328,116.335 C69.8328,112.920556 70.577,110.274361 72.0654,108.396417 C73.5538,106.518472 75.518,105.5795 77.958,105.5795 C82.5452,105.5795 84.8388,109.042722 84.8388,115.969167 L84.8388,115.969167 L84.8388,135.358333 L95.0136,135.358333 L95.0136,112.676667 C95.0136,107.408667 93.7936,103.396694 91.3536,100.64075 C88.9136,97.8848056 85.5952,96.5068333 81.3984,96.5068333 C75.7376,96.5068333 71.6872,98.8481667 69.2472,103.530833 C69.052,102.457722 68.8324,100.433444 68.5884,97.458 L68.5884,97.458 L59.658,97.458 L59.658,135.358333 L69.8328,135.358333 Z M116.9736,136.236333 C119.6088,136.236333 121.9512,135.675389 124.0008,134.5535 C126.0504,133.431611 127.7096,131.724389 128.9784,129.431833 C129.1736,130.456167 129.3688,132.431667 129.564,135.358333 L129.564,135.358333 L138.5676,135.358333 L138.5676,97.458 L128.3928,97.458 L128.3928,116.408167 C128.3928,119.822611 127.6364,122.481 126.1236,124.383333 C124.6108,126.285667 122.6344,127.236833 120.1944,127.236833 C115.7048,127.236833 113.46,123.749222 113.46,116.774 L113.46,116.774 L113.46,97.458 L103.2852,97.458 L103.2852,120.139667 C103.2852,125.407667 104.5052,129.407444 106.9452,132.139 C109.3852,134.870556 112.728,136.236333 116.9736,136.236333 Z M158.2584,135.358333 L158.2584,79.6785 L148.0836,79.6785 L148.0836,135.358333 L158.2584,135.358333 Z M177.876,135.358333 L177.876,79.6785 L167.7012,79.6785 L167.7012,135.358333 L177.876,135.358333 Z" id="null" fill="#C9C9C9" fill-rule="nonzero"></path>
            </g>
            <path d="M380.686375,976.112311 L380.686375,970.457883 C384.422879,970.090713 388.012853,969.723542 391.456298,969.429806 L391.456298,965.097192 C388.086118,965.390929 384.496144,965.684665 380.686375,965.978402 L380.686375,960.177106 L392.115681,960.177106 L392.115681,955.844492 L380.686375,955.844492 L380.686375,950.99784 L375.8509,950.99784 L375.8509,955.844492 L367.352185,955.844492 C369.183805,953.421166 370.942159,950.63067 372.553985,947.546436 L392.628535,947.546436 L392.628535,942.846652 L374.751928,942.846652 C375.338046,941.524838 375.8509,940.203024 376.363753,938.88121 L371.088689,938 C370.502571,939.615551 369.843188,941.231102 369.183805,942.846652 L359,942.846652 L359,947.546436 L366.839332,947.546436 C365.080977,950.850972 363.102828,953.641469 361.051414,955.991361 L362.22365,960.177106 L375.8509,960.177106 L375.8509,966.272138 C370.868895,966.565875 365.520566,966.786177 359.952442,967.079914 L360.611825,971.779698 C365.886889,971.485961 371.015424,971.11879 375.8509,970.825054 L375.8509,976.112311 L380.686375,976.112311 Z M395.77892,976.332613 C398.929306,971.779698 400.907455,966.419006 401.713368,960.25054 L411.237789,960.25054 L411.237789,976.185745 L416.293059,976.185745 L416.293059,960.25054 L424.059126,960.25054 L424.059126,955.62419 L402.079692,955.62419 L402.079692,947.987041 C409.992288,947.105832 416.586118,945.416847 422.007712,943.066955 L418.637532,939.101512 C413.508997,941.451404 406.329049,943.066955 397.244216,943.948164 L397.244216,955.477322 C397.097686,962.086393 395.339332,967.740821 392.115681,972.514039 L395.77892,976.332613 Z M373.213368,1005.92657 L373.213368,1003.06263 L410.431877,1003.06263 L410.431877,1005.92657 L415.85347,1005.92657 L415.85347,978.315335 L367.791774,978.315335 L367.791774,1005.92657 L373.213368,1005.92657 Z M410.431877,988.522678 L373.213368,988.522678 L373.213368,982.794816 L410.431877,982.794816 L410.431877,988.522678 Z M410.431877,998.509719 L373.213368,998.509719 L373.213368,992.781857 L410.431877,992.781857 L410.431877,998.509719 Z M434.829049,1005.70626 C445.012853,1001.30022 452.339332,995.058315 456.881748,987.12743 C459.372751,982.427646 461.20437,976.920086 462.376607,970.531317 L468.311054,970.531317 L468.311054,997.261339 C468.311054,1002.25486 470.655527,1004.75162 475.491003,1004.75162 L487.359897,1004.75162 C490.437018,1004.75162 492.634961,1004.09071 494.026992,1002.7689 C495.638817,1001.15335 496.737789,996.820734 497.323907,989.62419 L492.341902,988.008639 C491.975578,993.736501 491.316195,997.114471 490.290488,998.289417 C489.484576,999.24406 488.16581,999.758099 486.407455,999.758099 L477.102828,999.758099 C474.758355,999.758099 473.586118,998.509719 473.586118,996.159827 L473.586118,970.531317 L496.298201,970.531317 L496.298201,965.464363 L463.182519,965.464363 C463.695373,961.49892 463.988432,957.166307 464.134961,952.613391 L464.134961,947.693305 L490.363753,947.693305 L490.363753,942.552916 L437.75964,942.552916 L437.75964,947.693305 L458.786632,947.693305 L458.786632,952.613391 C458.713368,957.166307 458.420308,961.49892 457.83419,965.464363 L432.8509,965.464363 L432.8509,970.531317 L456.955013,970.531317 C456.002571,975.157667 454.683805,979.343413 452.92545,983.015119 C448.969152,990.5054 442.008997,996.453564 431.898458,1001.00648 L434.829049,1005.70626 Z M514.321337,1005.85313 L514.321337,955.550756 L535.201799,955.550756 C534.688946,958.928726 534.029563,962.012959 533.22365,964.87689 C530.586118,973.028078 525.164524,979.784017 516.958869,985.218143 L520.475578,989.550756 C528.974293,983.969762 534.688946,977.066955 537.692802,968.695464 C544.579692,975.74514 550.22108,982.427646 554.470437,988.742981 L558.426735,984.704104 C553.224936,977.727862 546.8509,970.604752 539.231362,963.408207 C539.817481,960.984881 540.257069,958.341253 540.623393,955.550756 L561.577121,955.550756 L561.577121,996.526998 C561.577121,998.87689 560.404884,1000.12527 558.060411,1000.12527 L546.8509,999.831533 L548.316195,1005.11879 L559.818766,1005.11879 C564.507712,1005.11879 566.92545,1002.62203 566.92545,997.701944 L566.92545,950.410367 L541.209512,950.410367 C541.502571,946.738661 541.722365,942.699784 541.722365,938.367171 L536.374036,938.367171 C536.374036,942.62635 536.154242,946.665227 535.787918,950.410367 L508.973008,950.410367 L508.973008,1005.85313 L514.321337,1005.85313 Z M586.340617,958.194384 L586.340617,949.676026 L636.014139,949.676026 L636.014139,957.827214 L641.142674,957.827214 L641.142674,944.75594 L614.547558,944.75594 C613.741645,942.332613 612.935733,940.12959 612.056555,938.220302 L606.415167,939.174946 C607.294344,940.863931 608.173522,942.699784 609.052699,944.75594 L581.212082,944.75594 L581.212082,958.194384 L586.340617,958.194384 Z M582.970437,970.164147 C592.05527,966.051836 599.674807,961.278618 605.902314,955.844492 L602.385604,952.686825 C596.231362,957.827214 588.758355,962.233261 579.820051,966.051836 L582.970437,970.164147 Z M638.358612,970.017279 L642.021851,966.419006 C636.014139,961.866091 628.541131,957.313175 619.749357,952.760259 L616.379177,956.064795 C625.683805,960.984881 633.010283,965.611231 638.358612,970.017279 Z M595.205656,1006 L595.205656,1002.91577 L627.955013,1002.91577 L627.955013,1006 L633.010283,1006 L633.010283,981.987041 C635.501285,983.161987 638.212082,984.336933 641.142674,985.511879 L644,981.179266 C629.493573,975.598272 619.236504,969.136069 613.302057,961.719222 L609.272494,961.719222 C601.946015,969.796976 591.615681,976.259179 578.208226,981.2527 L580.992288,985.585313 C584.069409,984.410367 587.073265,983.161987 590.077121,981.693305 L590.077121,1006 L595.205656,1006 Z M632.20437,981.61987 L590.22365,981.61987 C598.356041,977.580994 605.38946,972.514039 611.250643,966.345572 C616.232648,972.073434 623.266067,977.213823 632.20437,981.61987 Z M627.955013,998.069114 L595.205656,998.069114 L595.205656,986.319654 L627.955013,986.319654 L627.955013,998.069114 Z" id="暂无内容" fill="#999999" fill-rule="nonzero"></path>
        </g>
    </g>
</svg>