<svg width="1024" height="1024" xmlns="http://www.w3.org/2000/svg"><defs><linearGradient x1="50%" y1="0%" x2="50%" y2="100%" id="a"><stop stop-color="#EEE" stop-opacity=".3" offset="0%"/><stop stop-color="#E5E5E5" stop-opacity="0" offset="100%"/></linearGradient><linearGradient x1="50%" y1="0%" x2="50%" y2="100%" id="b"><stop stop-color="#EEE" offset="0%"/><stop stop-color="#E5E5E5" stop-opacity="0" offset="100%"/></linearGradient><linearGradient x1="50%" y1="0%" x2="50%" y2="100%" id="c"><stop stop-color="#EEE" offset="0%"/><stop stop-color="#E5E5E5" stop-opacity="0" offset="100%"/></linearGradient><linearGradient x1="50%" y1="0%" x2="50%" y2="100%" id="d"><stop stop-color="#EEE" offset="0%"/><stop stop-color="#E5E5E5" stop-opacity="0" offset="100%"/></linearGradient><linearGradient x1="50%" y1="0%" x2="50%" y2="100%" id="e"><stop stop-color="#EEE" offset="0%"/><stop stop-color="#E5E5E5" stop-opacity="0" offset="100%"/></linearGradient></defs><g fill="none" fill-rule="evenodd"><path d="M517.86 75.593h.13c141.463-.166 256.275 114.377 256.441 255.84v.602l-.343 292.457c-.167 141.821-115.094 256.748-256.915 256.915h-.13c-141.463.166-256.276-114.377-256.442-255.84v-.602l.344-292.457C261.11 190.687 376.039 75.76 517.86 75.593z" fill="url(#a)" transform="rotate(30 508.088 503.026)"/><path d="M242.312 247.863c6.063-.007 10.983 4.902 10.99 10.965v.026l-.103 87.877c-.007 6.081-4.935 11.01-11.016 11.016-6.063.007-10.984-4.902-10.99-10.964v-.026l.103-87.877c.007-6.081 4.935-11.01 11.016-11.017z" fill="url(#b)" transform="rotate(30 232.82 327.332)"/><path d="M102.864 317.397c8.083-.01 14.644 6.536 14.654 14.62v.034l-.138 117.17c-.01 8.107-6.58 14.678-14.688 14.688-8.084.009-14.645-6.536-14.654-14.62v-.034l.138-117.17c.01-8.108 6.58-14.679 14.688-14.688z" fill="url(#c)" transform="rotate(30 93.35 415.179)"/><path d="M873.66 515.028c8.083-.009 14.644 6.536 14.653 14.62v.034l-.223 190.426c-.01 8.108-6.58 14.678-14.689 14.688-8.083.01-14.644-6.536-14.654-14.62v-.034l.224-190.425c.01-8.108 6.58-14.679 14.689-14.689z" fill="url(#d)" transform="rotate(30 864.102 649.438)"/><path fill="url(#e)" transform="rotate(45 72.93 634.87)" d="M77.066 632.253l-25.933 11.291 11.292-25.933-11.221-25.902 25.902 11.221 25.933-11.291-11.292 25.933 11.221 25.902z"/><path fill="url(#e)" transform="rotate(45 935.96 269.36)" d="M940.097 266.742l-25.933 11.292 11.292-25.933-11.222-25.902 25.903 11.221 25.932-11.291-11.291 25.932 11.22 25.903z"/><path fill="url(#e)" transform="rotate(45 17.875 748.34)" d="M22.02 739.858l-15.56 6.775 6.776-15.56-6.733-15.541 15.541 6.732 15.56-6.774-6.775 15.56 6.733 15.54z"/><path fill="url(#e)" transform="rotate(45 976.333 390.15)" d="M980.477 381.668l-15.56 6.775 6.776-15.56-6.733-15.541 15.541 6.733 15.56-6.775-6.775 15.56 6.733 15.54z"/><g transform="translate(329 267)"><rect fill="#FFF" width="366" height="439" rx="45"/><path d="M329.4 0C349.614 0 366 16.379 366 36.583v365.834C366 422.62 349.614 439 329.4 439H36.6C16.386 439 0 422.621 0 402.417V36.583C0 16.38 16.386 0 36.6 0h292.8zm0 7.317H36.6c-15.866 0-28.784 12.613-29.266 28.355l-.014.911v365.834c0 15.858 12.62 28.77 28.368 29.252l.912.014h292.8c15.866 0 28.784-12.613 29.266-28.355l.014-.911V36.583c0-15.858-12.62-28.77-28.368-29.252l-.912-.014z" fill="#C9C9C9" fill-rule="nonzero"/><rect fill="#C9C9C9" x="54.9" y="318.275" width="256.2" height="10.975" rx="3"/><rect fill="#C9C9C9" x="54.9" y="373.15" width="109.8" height="10.975" rx="3"/><rect fill="#C9C9C9" x="54.9" y="263.4" width="256.2" height="10.975" rx="3"/><rect fill="#C9C9C9" x="54.9" y="208.525" width="256.2" height="10.975" rx="3"/><path d="M69.833 135.358v-19.023c0-3.414.744-6.06 2.232-7.939 1.489-1.878 3.453-2.817 5.893-2.817 4.587 0 6.88 3.464 6.88 10.39v19.39h10.176v-22.682c0-5.268-1.22-9.28-3.66-12.036-2.44-2.756-5.759-4.134-9.956-4.134-5.66 0-9.71 2.341-12.15 7.024-.196-1.073-.416-3.098-.66-6.073h-8.93v37.9h10.175zm47.14.878c2.636 0 4.978-.56 7.028-1.682 2.05-1.122 3.709-2.83 4.977-5.122.196 1.024.39 3 .586 5.926h9.004v-37.9h-10.175v18.95c0 3.415-.757 6.073-2.27 7.975-1.512 1.903-3.489 2.854-5.929 2.854-4.49 0-6.734-3.488-6.734-10.463V97.458h-10.175v22.682c0 5.268 1.22 9.267 3.66 11.999 2.44 2.732 5.783 4.097 10.029 4.097zm41.285-.878v-55.68h-10.174v55.68h10.174zm19.618 0v-55.68h-10.175v55.68h10.175z" fill="#C9C9C9" fill-rule="nonzero"/></g><path d="M391.686 984.112v-5.654c3.737-.367 7.327-.734 10.77-1.028v-4.333c-3.37.294-6.96.588-10.77.881v-5.8h11.43v-4.334h-11.43v-4.846h-4.835v4.846h-8.499c1.832-2.423 3.59-5.213 5.202-8.298h20.075v-4.7h-17.877c.586-1.321 1.099-2.643 1.612-3.965l-5.275-.881c-.586 1.616-1.246 3.231-1.905 4.847H370v4.7h7.84c-1.759 3.304-3.737 6.094-5.789 8.444l1.173 4.186h13.627v6.095c-4.982.294-10.33.514-15.899.808l.66 4.7c5.275-.294 10.403-.661 15.239-.955v5.287h4.835zm15.093.22c3.15-4.552 5.128-9.913 5.934-16.081h9.525v15.935h5.055V968.25h7.766v-4.627h-21.98v-7.637c7.913-.881 14.507-2.57 19.929-4.92l-3.37-3.965c-5.129 2.35-12.309 3.965-21.394 4.846v11.53c-.146 6.608-1.905 12.263-5.128 17.036l3.663 3.819zm-22.566 29.595v-2.864h37.219v2.864h5.421v-27.612h-48.061v27.612h5.421zm37.219-17.404h-37.219v-5.728h37.219v5.728zm0 9.987h-37.219v-5.728h37.219v5.728zm24.397 7.196c10.184-4.406 17.51-10.648 22.053-18.579 2.49-4.7 4.322-10.207 5.495-16.596h5.934v26.73c0 4.994 2.345 7.49 7.18 7.49h11.869c3.077 0 5.275-.66 6.667-1.982 1.612-1.616 2.71-5.948 3.297-13.145l-4.982-1.615c-.366 5.728-1.026 9.105-2.052 10.28-.805.955-2.124 1.47-3.883 1.47h-9.304c-2.345 0-3.517-1.25-3.517-3.6v-25.628h22.712v-5.067h-33.115c.512-3.965.805-8.298.952-12.85v-4.92h26.229v-5.141H448.76v5.14h21.027v4.92c-.074 4.553-.367 8.886-.953 12.851h-24.983v5.067h24.104c-.952 4.627-2.271 8.812-4.03 12.484-3.956 7.49-10.916 13.439-21.027 17.991l2.931 4.7zm79.492.147v-50.302h20.88c-.512 3.378-1.171 6.462-1.977 9.326-2.638 8.151-8.06 14.907-16.265 20.341l3.517 4.333c8.498-5.581 14.213-12.484 17.217-20.856 6.887 7.05 12.528 13.733 16.777 20.048l3.957-4.039c-5.202-6.976-11.576-14.1-19.196-21.296.586-2.423 1.026-5.067 1.392-7.857h20.954v40.976c0 2.35-1.172 3.598-3.517 3.598l-11.21-.293 1.466 5.287h11.503c4.689 0 7.106-2.497 7.106-7.417V958.41H552.21c.293-3.671.512-7.71.512-12.043h-5.348c0 4.26-.22 8.298-.586 12.043h-26.815v55.443h5.348zm72.02-47.659v-8.518h49.673v8.151h5.129v-13.071h-26.595c-.806-2.423-1.612-4.626-2.491-6.536l-5.642.955a80.858 80.858 0 012.638 5.58h-27.84v13.44h5.128zm-3.37 11.97c9.084-4.112 16.704-8.885 22.931-14.32l-3.516-3.157c-6.155 5.14-13.628 9.546-22.566 13.365l3.15 4.112zm55.388-.147l3.663-3.598c-6.008-4.553-13.48-9.106-22.273-13.659l-3.37 3.305c9.305 4.92 16.631 9.546 21.98 13.952zM606.206 1014v-3.084h32.749V1014h5.055v-24.013a149.653 149.653 0 008.133 3.525l2.857-4.333c-14.506-5.58-24.763-12.043-30.698-19.46h-4.03c-7.326 8.078-17.656 14.54-31.064 19.534l2.784 4.332c3.077-1.175 6.081-2.423 9.085-3.892V1014h5.129zm36.998-24.38h-41.98c8.132-4.039 15.165-9.106 21.027-15.274 4.982 5.727 12.015 10.868 20.953 15.274zm-4.249 16.45h-32.75v-11.75h32.75v11.75z" fill="#999" fill-rule="nonzero"/></g></svg>